#define bt_width 9
#define bt_height 20
static unsigned char bt_bits[] = {
   0x00, 0x00, 0x10, 0x00, 0x30, 0x00, 0x70, 0x00, 0xd0, 0x00, 0x92, 0x00,
   0x93, 0x01, 0xd6, 0x00, 0x3c, 0x00, 0x38, 0x00, 0x38, 0x00, 0x7c, 0x00,
   0xd2, 0x00, 0x92, 0x00, 0x90, 0x00, 0x50, 0x00, 0x70, 0x00, 0x30, 0x00,
   0x10, 0x00, 0x00, 0x00 };
